TITLE ""
FILE "1Q_t_0049-0058.mp3" MP3
  TRACK 01 AUDIO
    TITLE "1Q_t_0049-0058_01"
    INDEX 01 00:00:00
  TRACK 02 AUDIO
    TITLE "1Q_t_0049-0058_02"
    INDEX 01 00:01:18
  TRACK 03 AUDIO
    TITLE "1Q_t_0049-0058_03"
    INDEX 01 00:01:33
  TRACK 04 AUDIO
    TITLE "1Q_t_0049-0058_04"
    INDEX 01 00:02:54
  TRACK 05 AUDIO
    TITLE "1Q_t_0049-0058_05"
    INDEX 01 00:02:70
  TRACK 06 AUDIO
    TITLE "1Q_t_0049-0058_06"
    INDEX 01 00:07:30
  TRACK 07 AUDIO
    TITLE "1Q_t_0049-0058_07"
    INDEX 01 00:08:10
  TRACK 08 AUDIO
    TITLE "1Q_t_0049-0058_08"
    INDEX 01 00:09:19
  TRACK 09 AUDIO
    TITLE "1Q_t_0049-0058_09"
    INDEX 01 00:09:35
  TRACK 10 AUDIO
    TITLE "1Q_t_0049-0058_10"
    INDEX 01 00:11:53
  TRACK 11 AUDIO
    TITLE "1Q_t_0049-0058_11"
    INDEX 01 00:11:71
  TRACK 12 AUDIO
    TITLE "1Q_t_0049-0058_12"
    INDEX 01 00:16:72
  TRACK 13 AUDIO
    TITLE "1Q_t_0049-0058_13"
    INDEX 01 00:17:50
  TRACK 14 AUDIO
    TITLE "1Q_t_0049-0058_14"
    INDEX 01 00:19:02
  TRACK 15 AUDIO
    TITLE "1Q_t_0049-0058_15"
    INDEX 01 00:19:19
  TRACK 16 AUDIO
    TITLE "1Q_t_0049-0058_16"
    INDEX 01 00:20:44
  TRACK 17 AUDIO
    TITLE "1Q_t_0049-0058_17"
    INDEX 01 00:20:62
  TRACK 18 AUDIO
    TITLE "1Q_t_0049-0058_18"
    INDEX 01 00:29:08
  TRACK 19 AUDIO
    TITLE "1Q_t_0049-0058_19"
    INDEX 01 00:29:61
  TRACK 20 AUDIO
    TITLE "1Q_t_0049-0058_20"
    INDEX 01 00:31:01
  TRACK 21 AUDIO
    TITLE "1Q_t_0049-0058_21"
    INDEX 01 00:31:17
  TRACK 22 AUDIO
    TITLE "1Q_t_0049-0058_22"
    INDEX 01 00:33:39
  TRACK 23 AUDIO
    TITLE "1Q_t_0049-0058_23"
    INDEX 01 00:33:55
  TRACK 24 AUDIO
    TITLE "1Q_t_0049-0058_24"
    INDEX 01 00:38:27
  TRACK 25 AUDIO
    TITLE "1Q_t_0049-0058_25"
    INDEX 01 00:39:06
  TRACK 26 AUDIO
    TITLE "1Q_t_0049-0058_26"
    INDEX 01 00:40:24
  TRACK 27 AUDIO
    TITLE "1Q_t_0049-0058_27"
    INDEX 01 00:40:39
  TRACK 28 AUDIO
    TITLE "1Q_t_0049-0058_28"
    INDEX 01 00:41:64
  TRACK 29 AUDIO
    TITLE "1Q_t_0049-0058_29"
    INDEX 01 00:41:74
  TRACK 30 AUDIO
    TITLE "1Q_t_0049-0058_30"
    INDEX 01 00:48:09
  TRACK 31 AUDIO
    TITLE "1Q_t_0049-0058_31"
    INDEX 01 00:48:72
  TRACK 32 AUDIO
    TITLE "1Q_t_0049-0058_32"
    INDEX 01 00:49:70
  TRACK 33 AUDIO
    TITLE "1Q_t_0049-0058_33"
    INDEX 01 00:50:10
  TRACK 34 AUDIO
    TITLE "1Q_t_0049-0058_34"
    INDEX 01 00:51:10
  TRACK 35 AUDIO
    TITLE "1Q_t_0049-0058_35"
    INDEX 01 00:51:23
  TRACK 36 AUDIO
    TITLE "1Q_t_0049-0058_36"
    INDEX 01 00:57:55
  TRACK 37 AUDIO
    TITLE "1Q_t_0049-0058_37"
    INDEX 01 00:58:35
  TRACK 38 AUDIO
    TITLE "1Q_t_0049-0058_38"
    INDEX 01 00:59:44
  TRACK 39 AUDIO
    TITLE "1Q_t_0049-0058_39"
    INDEX 01 00:59:60
  TRACK 40 AUDIO
    TITLE "1Q_t_0049-0058_40"
    INDEX 01 01:01:75
  TRACK 41 AUDIO
    TITLE "1Q_t_0049-0058_41"
    INDEX 01 01:02:15
  TRACK 42 AUDIO
    TITLE "1Q_t_0049-0058_42"
    INDEX 01 01:06:60
  TRACK 43 AUDIO
    TITLE "1Q_t_0049-0058_43"
    INDEX 01 01:07:38
  TRACK 44 AUDIO
    TITLE "1Q_t_0049-0058_44"
    INDEX 01 01:08:53
  TRACK 45 AUDIO
    TITLE "1Q_t_0049-0058_45"
    INDEX 01 01:08:69
  TRACK 46 AUDIO
    TITLE "1Q_t_0049-0058_46"
    INDEX 01 01:09:70
  TRACK 47 AUDIO
    TITLE "1Q_t_0049-0058_47"
    INDEX 01 01:10:13
  TRACK 48 AUDIO
    TITLE "1Q_t_0049-0058_48"
    INDEX 01 01:14:40
  TRACK 49 AUDIO
    TITLE "1Q_t_0049-0058_49"
    INDEX 01 01:15:18
  TRACK 50 AUDIO
    TITLE "1Q_t_0049-0058_50"
    INDEX 01 01:16:27
  TRACK 51 AUDIO
    TITLE "1Q_t_0049-0058_51"
    INDEX 01 01:16:45
  TRACK 52 AUDIO
    TITLE "1Q_t_0049-0058_52"
    INDEX 01 01:17:62
  TRACK 53 AUDIO
    TITLE "1Q_t_0049-0058_53"
    INDEX 01 01:18:03
  TRACK 54 AUDIO
    TITLE "1Q_t_0049-0058_54"
    INDEX 01 01:24:23
  TRACK 55 AUDIO
    TITLE "1Q_t_0049-0058_55"
    INDEX 01 01:25:01
  TRACK 56 AUDIO
    TITLE "1Q_t_0049-0058_56"
    INDEX 01 01:26:20
  TRACK 57 AUDIO
    TITLE "1Q_t_0049-0058_57"
    INDEX 01 01:26:33
  TRACK 58 AUDIO
    TITLE "1Q_t_0049-0058_58"
    INDEX 01 01:29:12
  TRACK 59 AUDIO
    TITLE "1Q_t_0049-0058_59"
    INDEX 01 01:29:28
  TRACK 60 AUDIO
    TITLE "1Q_t_0049-0058_60"
    INDEX 01 01:35:30
